<svg width="150" height="150" viewBox="0 0 150 150" fill="none" xmlns="http://www.w3.org/2000/svg">
<path fill-rule="evenodd" clip-rule="evenodd" d="M51 136C74.7482 136 94 121.449 94 103.5C94 85.5507 74.7482 71 51 71C27.2518 71 8 85.5507 8 103.5C8 109.523 10.1677 115.163 13.9456 120C14.9361 121.268 15.4053 122.889 15.0751 124.464L12.8854 134.91C12.0601 138.847 15.9854 142.097 19.6995 140.552L34.1013 134.561C35.1486 134.125 36.3107 134.067 37.4107 134.344C41.682 135.418 46.2511 136 51 136Z" fill="white"/>
<path fill-rule="evenodd" clip-rule="evenodd" d="M137.927 60.6743C137.633 59.269 137.976 57.8172 138.749 56.607C141.473 52.3403 143 47.5549 143 42.5C143 24.5507 123.748 10 100 10C76.2518 10 57 24.5507 57 42.5C57 60.4493 76.2518 75 100 75C106.153 75 112.004 74.0232 117.297 72.2636C118.505 71.862 119.819 71.8739 120.994 72.3628L133.468 77.5522C137.183 79.0973 141.108 75.847 140.283 71.9099L137.927 60.6743Z" fill="white"/>
</svg>
