<svg width="150" height="150" viewBox="0 0 150 150" fill="none" xmlns="http://www.w3.org/2000/svg">
<path fill-rule="evenodd" clip-rule="evenodd" d="M21.3299 74.8791L45.5238 98.194C48.5064 101.068 48.5064 105.728 45.5238 108.603C42.5412 111.477 37.7054 111.477 34.7228 108.603L5.23696 80.188C3.71806 78.7243 2.97266 76.7974 3.00077 74.8791C2.97266 72.9608 3.71806 71.034 5.23696 69.5703L19.9799 55.363L34.7228 41.1557C37.7054 38.2814 42.5412 38.2814 45.5238 41.1557C48.5064 44.0299 48.5064 48.69 45.5238 51.5643L30.7809 65.7716L21.3299 74.8791Z" fill="white"/>
<path fill-rule="evenodd" clip-rule="evenodd" d="M129.431 74.8791L105.237 98.194C102.254 101.068 102.254 105.728 105.237 108.603C108.22 111.477 113.055 111.477 116.038 108.603L145.524 80.188C147.043 78.7243 147.788 76.7974 147.76 74.8791C147.788 72.9608 147.043 71.034 145.524 69.5703L116.038 41.1557C113.055 38.2814 108.22 38.2814 105.237 41.1557C102.254 44.0299 102.254 48.69 105.237 51.5643L129.431 74.8791Z" fill="white"/>
<path d="M90 27L62 123" stroke="white" stroke-width="15" stroke-linecap="round"/>
</svg>
