<svg width="150" height="150" viewBox="0 0 150 150" fill="none" xmlns="http://www.w3.org/2000/svg">
<path fill-rule="evenodd" clip-rule="evenodd" d="M4.65686 69.7695C1.53266 72.8937 1.53266 77.959 4.65685 81.0832L35.7696 112.196C38.8937 115.32 43.9591 115.32 47.0833 112.196L73.5122 85.767C74.2932 84.986 75.5596 84.986 76.3406 85.767L102.77 112.196C105.894 115.32 110.959 115.32 114.083 112.196L145.196 81.0832C148.32 77.959 148.32 72.8937 145.196 69.7695L114.083 38.6568C110.959 35.5326 105.894 35.5326 102.77 38.6568L76.3406 65.0858C75.5596 65.8668 74.2932 65.8668 73.5122 65.0858L47.0833 38.6568C43.9591 35.5326 38.8937 35.5326 35.7696 38.6568L4.65686 69.7695Z" fill="white"/>
</svg>
