<svg width="150" height="150" viewBox="0 0 150 150" fill="none" xmlns="http://www.w3.org/2000/svg">
<path fill-rule="evenodd" clip-rule="evenodd" d="M140.733 80.8268C143.655 77.5147 143.655 72.713 140.733 69.4009C130.579 57.8908 105.184 33 75.4622 33C45.7409 33 20.3458 57.8908 10.1915 69.4009C7.2695 72.713 7.26951 77.5147 10.1915 80.8268C20.3458 92.3368 45.7409 117.228 75.4622 117.228C105.184 117.228 130.579 92.3368 140.733 80.8268ZM95.4622 75C95.4622 86.0457 86.5079 95 75.4622 95C64.4165 95 55.4622 86.0457 55.4622 75C55.4622 63.9543 64.4165 55 75.4622 55C86.5079 55 95.4622 63.9543 95.4622 75ZM105.462 75C105.462 91.5685 92.0308 105 75.4622 105C58.8937 105 45.4622 91.5685 45.4622 75C45.4622 58.4315 58.8937 45 75.4622 45C92.0308 45 105.462 58.4315 105.462 75Z" fill="white"/>
</svg>
