<svg width="150" height="150" viewBox="0 0 150 150" fill="none" xmlns="http://www.w3.org/2000/svg">
<circle cx="75" cy="75" r="60" stroke="white" stroke-width="10"/>
<path d="M79.5 134C74.9371 134 70.3179 132.653 65.8822 129.886C61.4281 127.108 57.2326 122.939 53.6132 117.489C49.9954 112.041 47.069 105.484 45.0561 98.1657C43.0442 90.8513 42 82.9761 42 75C42 67.0238 43.0442 59.1486 45.0561 51.8343C47.069 44.5162 49.9955 37.9591 53.6132 32.5111C57.2327 27.0607 61.4281 22.8923 65.8822 20.1141C70.3179 17.3473 74.9371 16 79.5 16" stroke="white" stroke-width="10"/>
<path d="M69.5 16C74.0629 16 78.6821 17.3473 83.1178 20.1141C87.5719 22.8923 91.7674 27.0607 95.3868 32.5112C99.0045 37.9591 101.931 44.5162 103.944 51.8343C105.956 59.1487 107 67.0239 107 75C107 82.9762 105.956 90.8513 103.944 98.1657C101.931 105.484 99.0045 112.041 95.3868 117.489C91.7674 122.939 87.5719 127.108 83.1178 129.886C78.6821 132.653 74.0629 134 69.5 134" stroke="white" stroke-width="10"/>
<line x1="13" y1="77" x2="137" y2="77" stroke="white" stroke-width="10"/>
<line x1="19" y1="50" x2="132" y2="50" stroke="white" stroke-width="10"/>
<line x1="19" y1="103" x2="130" y2="103" stroke="white" stroke-width="10"/>
<line x1="75.1141" y1="17.0476" x2="73.9998" y2="134.047" stroke="white" stroke-width="10"/>
</svg>
