<svg width="150" height="150" viewBox="0 0 150 150" fill="none" xmlns="http://www.w3.org/2000/svg">
<path fill-rule="evenodd" clip-rule="evenodd" d="M32 25C32 29.5542 34.0296 33.6343 37.2335 36.3853L23.4816 60.2043C22.6744 60.0699 21.8454 60 21 60C12.7157 60 6 66.7157 6 75C6 83.2843 12.7157 90 21 90C21.8595 90 22.7021 89.9277 23.5221 89.7889L36.881 112.927C33.8814 115.67 32 119.615 32 124C32 132.284 38.7157 139 47 139C54.284 139 60.3554 133.808 61.7154 126.923H89.2846C90.6446 133.808 96.716 139 104 139C112.284 139 119 132.284 119 124C119 119.274 116.814 115.059 113.399 112.309L126.408 89.7769C127.25 89.9235 128.116 90 129 90C137.284 90 144 83.2843 144 75C144 66.7157 137.284 60 129 60C128.13 60 127.278 60.074 126.448 60.2162L113.031 36.9774C116.657 34.2394 119 29.8933 119 25C119 16.7157 112.284 10 104 10C96.3938 10 90.11 15.6613 89.1322 23L61.8678 23C60.89 15.6613 54.6062 10 47 10C38.7157 10 32 16.7157 32 25ZM104 40C102.313 40 100.691 39.7214 99.1769 39.2077L84.8117 63.6537C87.5141 65.9927 89.3723 69.281 89.8678 73H114.132C114.767 68.2351 117.639 64.1774 121.657 61.9172L108.59 39.2847C107.143 39.7492 105.601 40 104 40ZM114.3 78H89.6999C89.0097 81.4004 87.1692 84.3831 84.6023 86.5242L98.436 110.066C100.156 109.378 102.034 109 104 109C105.767 109 107.462 109.305 109.036 109.866L121.623 88.0639C117.907 85.9606 115.176 82.3169 114.3 78ZM60.1322 73C60.6348 69.2277 62.5394 65.8987 65.3049 63.5539L51.1262 39.4253C49.8153 39.7996 48.4311 40 47 40C45.0648 40 43.2153 39.6335 41.5169 38.9663L28.2849 61.8847C32.3335 64.1383 35.2299 68.2122 35.8678 73H60.1322ZM35.6999 78H60.3001C61.0008 81.4523 62.8872 84.474 65.5157 86.6217L51.8872 109.814C50.3553 109.287 48.7111 109 47 109C44.9 109 42.9008 109.432 41.0862 110.211L28.3185 88.0966C32.065 85.9985 34.8191 82.3393 35.6999 78ZM89.3001 28C90.0237 31.5649 92.0116 34.6707 94.7753 36.829L80.539 61.0558C78.8253 60.3745 76.9564 60 75 60C73.0977 60 71.2781 60.3541 69.6035 61L55.6507 37.2557C58.7124 35.0906 60.9271 31.8071 61.6999 28H89.3001ZM61.8574 121.923C61.3134 117.996 59.2489 114.554 56.2773 112.212L69.8608 89.0965C71.4639 89.6811 73.1947 90 75 90C76.8595 90 78.6399 89.6617 80.2831 89.0432L94.1678 112.672C91.4951 114.993 89.6521 118.245 89.1426 121.923H61.8574Z" fill="white"/>
</svg>
