<svg width="150" height="150" viewBox="0 0 150 150" fill="none" xmlns="http://www.w3.org/2000/svg">
<path fill-rule="evenodd" clip-rule="evenodd" d="M82.3957 85.2719C81.5263 84.7262 81.6476 82.9221 82.5859 82.506C88.7207 79.7861 93 73.6428 93 66.5C93 56.835 85.165 49 75.5 49C65.835 49 58 56.835 58 66.5C58 73.4371 62.0364 79.4314 67.8887 82.2626C68.8114 82.7089 68.8748 84.5127 67.9928 85.035C63.7291 87.5594 59.8013 92.3694 56.6152 99.1091C56.261 99.8584 55.8654 100.683 55.4399 101.57C50.0444 112.815 39.8621 134.036 48.8187 137.925C48.9346 137.975 49.0649 138 49.1912 138L75 138H100.809C100.935 138 101.065 137.975 101.181 137.925C110.138 134.036 99.9556 112.815 94.5601 101.57C94.1347 100.683 93.739 99.8584 93.3848 99.1091C90.2957 92.5745 86.5094 87.8541 82.3957 85.2719Z" fill="white"/>
<path fill-rule="evenodd" clip-rule="evenodd" d="M38.125 56.2719C37.2557 55.7262 37.377 53.9221 38.3153 53.506C44.4501 50.7861 48.7294 44.6428 48.7294 37.5C48.7294 27.835 40.8944 20 31.2294 20C21.5644 20 13.7294 27.835 13.7294 37.5C13.7294 44.4371 17.7658 50.4314 23.6181 53.2626C24.5408 53.7089 24.6042 55.5127 23.7222 56.035C19.4585 58.5594 15.5307 63.3694 12.3446 70.1091C11.9904 70.8584 11.5947 71.6831 11.1693 72.5698C5.77376 83.8149 -4.40854 105.036 4.54812 108.925C4.664 108.975 4.79427 109 4.92059 109L30.7294 109H56.5382C56.6645 109 56.7948 108.975 56.9107 108.925C65.8673 105.036 55.685 83.8149 50.2895 72.5698C49.864 71.6831 49.4684 70.8584 49.1142 70.1091C46.0251 63.5745 42.2387 58.8541 38.125 56.2719Z" fill="white"/>
<path fill-rule="evenodd" clip-rule="evenodd" d="M127.125 56.2719C126.256 55.7262 126.377 53.9221 127.315 53.506C133.45 50.7861 137.729 44.6428 137.729 37.5C137.729 27.835 129.894 20 120.229 20C110.564 20 102.729 27.835 102.729 37.5C102.729 44.4371 106.766 50.4314 112.618 53.2626C113.541 53.7089 113.604 55.5127 112.722 56.035C108.458 58.5594 104.531 63.3694 101.345 70.1091C100.99 70.8584 100.595 71.683 100.169 72.5697C94.7738 83.8149 84.5915 105.036 93.5481 108.925C93.664 108.975 93.7943 109 93.9206 109L119.729 109H145.538C145.665 109 145.795 108.975 145.911 108.925C154.867 105.036 144.685 83.8149 139.289 72.5698C138.864 71.6831 138.468 70.8584 138.114 70.1091C135.025 63.5745 131.239 58.8541 127.125 56.2719Z" fill="white"/>
</svg>
