<svg width="150" height="150" viewBox="0 0 150 150" fill="none" xmlns="http://www.w3.org/2000/svg">
<circle cx="118.5" cy="109.5" r="3.5" fill="white"/>
<circle cx="33.5" cy="40.5" r="3.5" fill="white"/>
<circle cx="125" cy="75" r="25" fill="white"/>
<circle cx="25" cy="75" r="25" fill="white"/>
<path d="M33 41C69.9554 6.58917 105.731 26.6622 119 41" stroke="white" stroke-width="7"/>
<path d="M118 110C81.0446 144.411 45.2686 124.338 32 110" stroke="white" stroke-width="7"/>
<path d="M32 107.5C30.6193 107.5 29.5 108.619 29.5 110V132.5C29.5 133.881 30.6193 135 32 135C33.3807 135 34.5 133.881 34.5 132.5V112.5H54.5C55.8807 112.5 57 111.381 57 110C57 108.619 55.8807 107.5 54.5 107.5H32ZM37.3033 111.768L33.7678 108.232L30.2322 111.768L33.7678 115.303L37.3033 111.768Z" fill="white"/>
<path d="M119.536 44.0355C120.916 44.0355 122.036 42.9162 122.036 41.5355V19.0355C122.036 17.6548 120.916 16.5355 119.536 16.5355C118.155 16.5355 117.036 17.6548 117.036 19.0355V39.0355H97.0355C95.6548 39.0355 94.5355 40.1548 94.5355 41.5355C94.5355 42.9162 95.6548 44.0355 97.0355 44.0355H119.536ZM114.232 39.7678L117.768 43.3033L121.303 39.7678L117.768 36.2322L114.232 39.7678Z" fill="white"/>
</svg>
