<svg width="150" height="150" viewBox="0 0 150 150" fill="none" xmlns="http://www.w3.org/2000/svg">
<path fill-rule="evenodd" clip-rule="evenodd" d="M75 107.4C83.838 99.4897 89.4 87.9944 89.4 75.2C89.4 62.4056 83.838 50.9103 75 43.0001C82.6429 36.1595 92.7357 32 103.8 32C127.659 32 147 51.3413 147 75.2C147 99.0587 127.659 118.4 103.8 118.4C92.7357 118.4 82.6429 114.241 75 107.4ZM75 107.4C67.3571 114.241 57.2643 118.4 46.2 118.4C22.3413 118.4 3 99.0587 3 75.2C3 51.3413 22.3413 32 46.2 32C57.2643 32 67.3571 36.1595 75 43.0001C66.162 50.9103 60.6 62.4056 60.6 75.2C60.6 87.9944 66.162 99.4897 75 107.4Z" fill="white"/>
</svg>
