<svg width="150" height="150" viewBox="0 0 150 150" fill="none" xmlns="http://www.w3.org/2000/svg">
<rect x="15" y="13" width="120" height="30" rx="10" fill="white"/>
<rect x="15" y="107" width="120" height="30" rx="10" fill="white"/>
<path d="M54.7678 52.2322C53.7915 51.2559 52.2085 51.2559 51.2322 52.2322L35.3223 68.1421C34.346 69.1184 34.346 70.7014 35.3223 71.6777C36.2986 72.654 37.8816 72.654 38.8579 71.6777L53 57.5355L67.1421 71.6777C68.1184 72.654 69.7014 72.654 70.6777 71.6777C71.654 70.7014 71.654 69.1184 70.6777 68.1421L54.7678 52.2322ZM55.5 128L55.5 54H50.5L50.5 128H55.5Z" fill="white"/>
<path d="M94.2549 98.7929C95.2436 99.7555 96.8263 99.7334 97.7901 98.7435L113.496 82.613C114.46 81.6231 114.439 80.0403 113.451 79.0777C112.462 78.1151 110.879 78.1372 109.916 79.127L95.955 93.4653L81.634 79.5217C80.6454 78.5591 79.0626 78.5811 78.0988 79.571C77.1351 80.5608 77.1552 82.1436 78.1439 83.1062L94.2549 98.7929ZM92.5447 22.0349L93.5002 97.0355L98.4998 96.9657L97.5442 21.9651L92.5447 22.0349Z" fill="white"/>
</svg>
