<svg width="150" height="150" viewBox="0 0 150 150" fill="none" xmlns="http://www.w3.org/2000/svg">
<rect x="25" width="100" height="40" rx="10" fill="white"/>
<rect x="25" y="110" width="100" height="40" rx="10" fill="white"/>
<path d="M53.7678 50.2322C52.7915 49.2559 51.2085 49.2559 50.2322 50.2322L34.3223 66.1421C33.346 67.1184 33.346 68.7014 34.3223 69.6777C35.2986 70.654 36.8816 70.654 37.8579 69.6777L52 55.5355L66.1421 69.6777C67.1184 70.654 68.7014 70.654 69.6777 69.6777C70.654 68.7014 70.654 67.1184 69.6777 66.1421L53.7678 50.2322ZM54.5 130V52H49.5V130H54.5Z" fill="white"/>
<path d="M96.2322 99.7678C97.2085 100.744 98.7915 100.744 99.7678 99.7678L115.678 83.8579C116.654 82.8816 116.654 81.2986 115.678 80.3223C114.701 79.346 113.118 79.346 112.142 80.3223L98 94.4645L83.8579 80.3223C82.8816 79.346 81.2986 79.346 80.3223 80.3223C79.346 81.2986 79.346 82.8816 80.3223 83.8579L96.2322 99.7678ZM95.5 20L95.5 98H100.5L100.5 20H95.5Z" fill="white"/>
</svg>
