<svg width="156" height="154" viewBox="0 0 156 154" fill="none" xmlns="http://www.w3.org/2000/svg">
<rect x="33" y="32" width="90" height="90" rx="15" stroke="white" stroke-width="10"/>
<rect x="46" width="10" height="20" rx="5" fill="white"/>
<rect x="64" width="10" height="20" rx="5" fill="white"/>
<rect x="82" width="10" height="20" rx="5" fill="white"/>
<rect x="100" width="10" height="20" rx="5" fill="white"/>
<rect x="155.64" y="45" width="10" height="20" rx="5" transform="rotate(90 155.64 45)" fill="white"/>
<rect x="155.427" y="62.9987" width="10" height="20" rx="5" transform="rotate(90 155.427 62.9987)" fill="white"/>
<rect x="155.213" y="80.9975" width="10" height="20" rx="5" transform="rotate(90 155.213 80.9975)" fill="white"/>
<rect x="155" y="98.9962" width="10" height="20" rx="5" transform="rotate(90 155 98.9962)" fill="white"/>
<rect x="20.64" y="45" width="10" height="20" rx="5" transform="rotate(90 20.64 45)" fill="white"/>
<rect x="20.4266" y="62.9987" width="10" height="20" rx="5" transform="rotate(90 20.4266 62.9987)" fill="white"/>
<rect x="20.2133" y="80.9975" width="10" height="20" rx="5" transform="rotate(90 20.2133 80.9975)" fill="white"/>
<rect x="20" y="98.9962" width="10" height="20" rx="5" transform="rotate(90 20 98.9962)" fill="white"/>
<rect x="46" y="134" width="10" height="20" rx="5" fill="white"/>
<rect x="64" y="134" width="10" height="20" rx="5" fill="white"/>
<rect x="82" y="134" width="10" height="20" rx="5" fill="white"/>
<rect x="100" y="134" width="10" height="20" rx="5" fill="white"/>
</svg>
