<svg width="150" height="150" viewBox="0 0 150 150" fill="none" xmlns="http://www.w3.org/2000/svg">
<rect x="33.4854" y="32.7987" width="83.3763" height="84.4026" rx="13.5" stroke="white" stroke-width="13"/>
<rect x="44.3331" width="9.63763" height="19.4805" rx="4.81881" fill="white"/>
<rect x="61.6808" width="9.63763" height="19.4805" rx="4.81881" fill="white"/>
<rect x="79.0286" width="9.63763" height="19.4805" rx="4.81881" fill="white"/>
<rect x="96.3763" width="9.63763" height="19.4805" rx="4.81881" fill="white"/>
<rect x="150" y="43.8312" width="9.74026" height="19.2753" rx="4.87013" transform="rotate(90 150 43.8312)" fill="white"/>
<rect x="149.794" y="61.3624" width="9.74026" height="19.2753" rx="4.87013" transform="rotate(90 149.794 61.3624)" fill="white"/>
<rect x="149.589" y="78.8936" width="9.74026" height="19.2753" rx="4.87013" transform="rotate(90 149.589 78.8936)" fill="white"/>
<rect x="149.383" y="96.4249" width="9.74026" height="19.2753" rx="4.87013" transform="rotate(90 149.383 96.4249)" fill="white"/>
<rect x="19.892" y="43.8312" width="9.74026" height="19.2753" rx="4.87013" transform="rotate(90 19.892 43.8312)" fill="white"/>
<rect x="19.6864" y="61.3624" width="9.74026" height="19.2753" rx="4.87013" transform="rotate(90 19.6864 61.3624)" fill="white"/>
<rect x="19.4808" y="78.8936" width="9.74026" height="19.2753" rx="4.87013" transform="rotate(90 19.4808 78.8936)" fill="white"/>
<rect x="19.2753" y="96.4249" width="9.74026" height="19.2753" rx="4.87013" transform="rotate(90 19.2753 96.4249)" fill="white"/>
<rect x="44.3331" y="130.519" width="9.63763" height="19.4805" rx="4.81881" fill="white"/>
<rect x="61.6808" y="130.519" width="9.63763" height="19.4805" rx="4.81881" fill="white"/>
<rect x="79.0286" y="130.519" width="9.63763" height="19.4805" rx="4.81881" fill="white"/>
<rect x="96.3763" y="130.519" width="9.63763" height="19.4805" rx="4.81881" fill="white"/>
</svg>
