<svg width="800" height="800" viewBox="0 0 800 800" fill="none" xmlns="http://www.w3.org/2000/svg">
<rect y="400" width="200" height="400" fill="#BFBFBF"/>
<rect x="600" y="400" width="200" height="400" fill="#BFBFBF"/>
<mask id="path-3-inside-1" fill="white">
<path d="M800 400C800 347.471 789.654 295.457 769.552 246.927C749.45 198.396 719.986 154.301 682.843 117.157C645.699 80.0138 601.604 50.5501 553.073 30.4482C504.543 10.3463 452.529 -2.2961e-06 400 0C347.471 2.29611e-06 295.457 10.3463 246.927 30.4482C198.396 50.5501 154.301 80.0139 117.157 117.157C80.0138 154.301 50.5501 198.396 30.4482 246.927C10.3463 295.457 -4.59221e-06 347.471 0 400H200C200 373.736 205.173 347.728 215.224 323.463C225.275 299.198 240.007 277.15 258.579 258.579C277.15 240.007 299.198 225.275 323.463 215.224C347.728 205.173 373.736 200 400 200C426.264 200 452.272 205.173 476.537 215.224C500.802 225.275 522.85 240.007 541.421 258.579C559.993 277.15 574.725 299.198 584.776 323.463C594.827 347.728 600 373.736 600 400H800Z"/>
</mask>
<path d="M800 400C800 347.471 789.654 295.457 769.552 246.927C749.45 198.396 719.986 154.301 682.843 117.157C645.699 80.0138 601.604 50.5501 553.073 30.4482C504.543 10.3463 452.529 -2.2961e-06 400 0C347.471 2.29611e-06 295.457 10.3463 246.927 30.4482C198.396 50.5501 154.301 80.0139 117.157 117.157C80.0138 154.301 50.5501 198.396 30.4482 246.927C10.3463 295.457 -4.59221e-06 347.471 0 400H200C200 373.736 205.173 347.728 215.224 323.463C225.275 299.198 240.007 277.15 258.579 258.579C277.15 240.007 299.198 225.275 323.463 215.224C347.728 205.173 373.736 200 400 200C426.264 200 452.272 205.173 476.537 215.224C500.802 225.275 522.85 240.007 541.421 258.579C559.993 277.15 574.725 299.198 584.776 323.463C594.827 347.728 600 373.736 600 400H800Z" fill="#BFBFBF" stroke="#BFBFBF" stroke-width="2" mask="url(#path-3-inside-1)"/>
</svg>
