<svg width="300" height="300" viewBox="0 0 300 300" fill="none" xmlns="http://www.w3.org/2000/svg">
<path d="M49.9999 51.0079C50.1323 64.0081 52.8239 76.8549 57.9212 88.8149C63.0184 100.775 70.4215 111.614 79.7076 120.713C88.9937 129.812 99.9811 136.992 112.042 141.845C124.104 146.698 137.003 149.127 150.003 148.995L150.013 149.995C136.881 150.129 123.852 147.674 111.669 142.773C99.486 137.871 88.3876 130.618 79.0077 121.427C69.6278 112.236 62.15 101.288 57.0013 89.207C51.8525 77.1262 49.1337 64.1496 49 51.0181L49.9999 51.0079Z" fill="white"/>
<path d="M285.142 112.881C273.817 106.495 261.346 102.403 248.439 100.837C235.533 99.2715 222.445 100.263 209.922 103.756C197.399 107.248 185.687 113.173 175.453 121.192C165.22 129.211 156.667 139.167 150.281 150.492L149.41 150.001C155.86 138.562 164.5 128.505 174.837 120.405C185.173 112.305 197.004 106.32 209.653 102.793C222.303 99.2647 235.523 98.263 248.56 99.8444C261.597 101.426 274.194 105.56 285.633 112.01L285.142 112.881Z" fill="white"/>
<path d="M114.288 285.5C125.48 278.885 135.26 270.13 143.069 259.736C150.878 249.342 156.564 237.511 159.8 224.92C163.037 212.328 163.762 199.222 161.934 186.351C160.106 173.479 155.761 161.093 149.146 149.901L150.007 149.392C156.688 160.698 161.078 173.208 162.924 186.21C164.771 199.212 164.038 212.45 160.769 225.169C157.499 237.887 151.757 249.837 143.869 260.337C135.981 270.836 126.102 279.679 114.797 286.36L114.288 285.5Z" fill="white"/>
</svg>
